<?xml version="1.0" encoding="UTF-8" standalone="no"?>
<svg
   xmlns:dc="http://purl.org/dc/elements/1.1/"
   xmlns:cc="http://creativecommons.org/ns#"
   xmlns:rdf="http://www.w3.org/1999/02/22-rdf-syntax-ns#"
   xmlns:svg="http://www.w3.org/2000/svg"
   xmlns="http://www.w3.org/2000/svg"
   xmlns:sodipodi="http://sodipodi.sourceforge.net/DTD/sodipodi-0.dtd"
   xmlns:inkscape="http://www.inkscape.org/namespaces/inkscape"
   width="74.893784mm"
   height="63.967991mm"
   viewBox="0 0 74.893784 63.967991"
   version="1.1"
   id="svg8"
   inkscape:version="1.0.2 (e86c870879, 2021-01-15)"
   sodipodi:docname="rabbit.svg">
  <defs
     id="defs2">
    <rect
       x="38.770245"
       y="106.61913"
       width="58.307487"
       height="47.457558"
       id="rect835" />
    <clipPath
       clipPathUnits="userSpaceOnUse"
       id="clipPath888">
      <rect
         style="fill:#ffffff;stroke:#000000;stroke-width:0.264999;stroke-miterlimit:4;stroke-dasharray:none;stroke-dashoffset:2.2148"
         id="rect890"
         width="107.03806"
         height="111.09772"
         x="-14.282509"
         y="66.965096" />
    </clipPath>
  </defs>
  <sodipodi:namedview
     id="base"
     pagecolor="#ffffff"
     bordercolor="#666666"
     borderopacity="1.0"
     inkscape:pageopacity="0.0"
     inkscape:pageshadow="2"
     inkscape:zoom="1.4"
     inkscape:cx="41.63129"
     inkscape:cy="165.46429"
     inkscape:document-units="mm"
     inkscape:current-layer="text841"
     inkscape:document-rotation="0"
     showgrid="false"
     inkscape:window-width="1920"
     inkscape:window-height="1015"
     inkscape:window-x="1280"
     inkscape:window-y="0"
     inkscape:window-maximized="1"
     fit-margin-top="0"
     fit-margin-left="0"
     fit-margin-right="0"
     fit-margin-bottom="0" />
  <metadata
     id="metadata5">
    <rdf:RDF>
      <cc:Work
         rdf:about="">
        <dc:format>image/svg+xml</dc:format>
        <dc:type
           rdf:resource="http://purl.org/dc/dcmitype/StillImage" />
        <dc:title></dc:title>
      </cc:Work>
    </rdf:RDF>
  </metadata>
  <g
     inkscape:label="Layer 1"
     inkscape:groupmode="layer"
     id="layer1"
     transform="translate(-56.565853,-126.6473)">
    <text
       xml:space="preserve"
       id="text833"
       style="font-style:normal;font-variant:normal;font-weight:normal;font-stretch:normal;font-size:1.41111px;line-height:1.25;font-family:Akaash;-inkscape-font-specification:Akaash;white-space:pre;shape-inside:url(#rect835);" />
    <g
       aria-label="QR"
       id="text841"
       style="font-style:normal;font-variant:normal;font-weight:normal;font-stretch:normal;font-size:17.6389px;line-height:1.25;font-family:Akaash;-inkscape-font-specification:Akaash;stroke-width:0.265;stroke-miterlimit:4;stroke-dasharray:none"
       transform="translate(0,5.2669421)">
      <path
         style="fill:#32174d;fill-opacity:1;stroke-width:0.0701146"
         d="m 72.973111,184.79308 c -0.41493,-0.45849 -0.43094,-0.62846 -0.13089,-1.38906 0.18804,-0.47666 0.44186,-0.97976 0.56406,-1.118 0.47572,-0.53819 0.17211,-0.88906 -1.03156,-1.19215 -0.68956,-0.17363 -1.96771,-0.66402 -2.84033,-1.08974 -0.87263,-0.42573 -1.69171,-0.77405 -1.82019,-0.77405 -0.12848,0 -0.62688,0.34531 -1.10756,0.76735 -1.13456,0.99615 -3.13757,1.44657 -4.78808,1.07668 -1.52698,-0.34221 -2.33138,-0.76513 -3.70095,-1.9458 -2.68562,-2.31522 -1.77471,-6.1153 1.87878,-7.8378 l 1.0523,-0.49613 -0.0813,-1.94739 c -0.11426,-2.73788 0.358,-5.01313 1.5598,-7.51469 2.26197,-4.70831 6.00713,-7.39752 12.62919,-9.06837 3.40246,-0.8585 6.02035,-1.13092 11.72511,-1.22012 6.40836,-0.10021 9.30367,-0.52151 13.911989,-2.02431 2.89158,-0.94297 3.49245,-1.25359 5.88698,-3.04323 1.46669,-1.0962 2.66672,-2.07649 2.66672,-2.17843 0,-0.49538 -1.99519,-3.40215 -3.41501,-4.9753 -0.87697,-0.97167 -1.833,-2.24896 -2.12451,-2.83842 -0.74512,-1.5067 -3.13693,-8.11324 -3.46129,-9.5606 -0.477769,-2.13191 0.4458,-4.05259 2.15225,-4.47588 1.42878,-0.35441 2.90736,0.33376 4.73732,2.20488 3.64248,3.72438 6.13324,8.59763 7.51685,14.70695 0.46761,2.06475 0.70716,2.66592 1.12371,2.82001 0.99929,0.36967 1.11429,-0.0123 0.72853,-2.42024 -0.88371,-5.51599 -3.89617,-12.13841 -6.87454,-15.11261 -1.02022,-1.01879 -1.21285,-1.35877 -1.07686,-1.90059 0.23004,-0.91656 1.11669,-1.14087 1.98211,-0.50145 1.40161,1.03559 3.27684,3.72576 4.93688,7.08237 2.10572,4.25773 2.94693,7.07839 3.72977,12.50625 0.10373,0.71928 0.32721,0.95978 1.32964,1.43098 0.80569,0.37872 2.72417,2.07707 5.78993,5.12559 5.20149,5.17223 5.48725,5.65064 4.72007,7.90219 -0.76366,2.24122 -3.37719,3.62018 -8.56834,4.52086 -1.35604,0.23528 -2.78644,0.59373 -3.17867,0.79656 -1.5376,0.79512 -4.86356,3.3114 -8.23493,6.23019 -1.94299,1.68216 -4.21731,3.5717 -5.05406,4.19898 -0.83674,0.62728 -1.52135,1.24637 -1.52135,1.37576 0,0.44018 2.88223,4.58977 4.34607,6.2571 2.19421,2.49924 2.57297,4.7438 0.96116,5.69592 -1.03077,0.60888 -6.74997,0.6524 -7.59886,0.0578 -0.37384,-0.26184 -0.75029,-1.11105 -1.14355,-2.57968 -0.61516,-2.29729 -2.511419,-6.29039 -2.987199,-6.29039 -0.47392,0 -3.10267,0.8818 -3.10186,1.0405 5.3e-4,0.0826 0.36372,0.38825 0.80734,0.67929 1.04419,0.68505 2.54446,2.50524 3.03747,3.68518 0.54389,1.30171 0.49955,2.87851 -0.0961,3.41756 -0.70054,0.63398 -3.25308,0.60342 -3.84077,-0.046 -0.24083,-0.26612 -0.43788,-0.60485 -0.43788,-0.75274 0,-0.49041 0.95708,-1.14466 1.67448,-1.14466 0.8176,0 0.83367,-0.0486 0.33247,-1.00532 -0.58756,-1.12153 -1.98079,-2.32024 -3.96685,-3.41303 -3.14875,-1.73253 -3.06924,-2.52725 0.34347,-3.43274 1.19203,-0.31628 3.06557,-0.87707 4.16344,-1.2462 l 1.99612,-0.67113 0.58753,0.58753 c 0.837009,0.83701 2.943379,5.12201 3.597489,7.31842 l 0.55467,1.86247 h 2.3635 2.3635 l -0.26466,-0.69608 c -0.14555,-0.38285 -0.81677,-1.30559 -1.4916,-2.05053 -1.55978,-1.72184 -5.10981,-7.152 -5.10981,-7.81602 0,-0.3182 0.64358,-0.96266 1.74926,-1.75166 1.78212,-1.27169 5.95478,-4.72257 8.55514,-7.07528 0.79248,-0.717 2.02352,-1.69602 2.73566,-2.1756 l 1.29479,-0.87196 -0.88357,-0.17682 c -3.4953,-0.69946 -4.53726,-1.37983 -3.90951,-2.5528 0.3197,-0.59737 0.61213,-0.59615 3.42281,0.0143 1.79429,0.38969 7.03107,0.32369 9.12813,-0.11505 3.53519,-0.7396 5.15937,-1.75033 5.15937,-3.21065 0,-0.73193 -0.29633,-1.15308 -1.87574,-2.66586 -1.03167,-0.98813 -2.95672,-2.89503 -4.2779,-4.23754 -2.64674,-2.68946 -3.45052,-3.10571 -6.54636,-3.3901 -1.58586,-0.14568 -1.86402,-0.0873 -3.57187,0.7498 -1.01865,0.49929 -2.98318,1.74215 -4.36563,2.76192 -2.87348,2.11964 -3.83243,2.63958 -6.6482,3.60461 -4.628369,1.58625 -7.836829,2.0509 -14.915339,2.16006 -7.4933,0.11555 -12.07631,0.94898 -16.15494,2.93781 -4.63517,2.26021 -7.61472,7.47859 -7.19836,12.60719 0.33089,4.07586 3.68544,7.72674 8.69273,9.4606 2.51184,0.86977 2.39074,0.93163 2.73377,-1.39662 0.19499,-1.32344 0.79732,-1.92882 1.60916,-1.6173 1.00841,0.38697 0.95904,2.60859 -0.12821,5.76871 -0.29389,0.85423 -0.53435,1.59403 -0.53435,1.64401 0,0.05 3.33375,0.0909 7.40833,0.0909 4.07458,0 7.40459,-0.0893 7.40002,-0.19843 -0.013,-0.31103 -1.09126,-1.00463 -2.10836,-1.35626 -0.50932,-0.17608 -2.27885,-0.39349 -3.93229,-0.48313 -2.64208,-0.14323 -3.09646,-0.23887 -3.75086,-0.78952 -1.51626,-1.27584 -1.34208,-3.55661 0.44656,-5.84744 3.46681,-4.44019 4.85535,-7.37071 4.85535,-10.24727 0,-1.23802 -0.0947,-1.48348 -0.80154,-2.07827 -0.44085,-0.37095 -1.22945,-0.75473 -1.75244,-0.85284 -1.60365,-0.30085 -4.91031,0.0529 -6.37185,0.68161 -1.49804,0.64444 -2.1188,0.62955 -2.55384,-0.0613 -0.93339,-1.48215 2.74,-3.11008 6.98175,-3.0941 2.48848,0.009 3.77073,0.36335 5.16295,1.42525 3.03119,2.312 2.03797,8.32826 -2.28424,13.83645 -1.69635,2.16181 -2.34734,3.25179 -2.34855,3.93221 -8e-4,0.51955 0.1849,0.56682 2.86893,0.72984 1.57846,0.0959 3.4589,0.34921 4.17874,0.56298 3.02212,0.89748 5.35902,4.41299 3.84456,5.78355 -0.43138,0.39039 -1.51734,0.43788 -10.01315,0.43788 -9.15223,0 -9.54802,-0.0207 -10.00209,-0.52241 z m -8.86965,-6.09444 c 0.21828,-0.005 0.69113,-0.23561 1.05079,-0.51198 l 0.65391,-0.50247 -1.33534,-1.33535 c -0.73444,-0.73443 -1.56179,-1.75583 -1.83856,-2.26976 -0.578,-1.07327 -0.96282,-1.14346 -2.18474,-0.39847 -2.01307,1.22733 -1.91633,3.35083 0.20436,4.48579 0.99033,0.53001 1.94241,0.77663 2.52354,0.65369 0.29104,-0.0616 0.70776,-0.11623 0.92604,-0.12145 z m 48.277809,-36.28985 c 0.42302,-0.19274 0.63341,-0.46618 0.55983,-0.7276 -0.0648,-0.23035 -0.25972,-1.1332 -0.43308,-2.00632 -0.98925,-4.9821 -3.79962,-10.6597 -6.92565,-13.99143 -1.41371,-1.50673 -2.44258,-1.82454 -2.86998,-0.88649 -0.30971,0.67975 -0.20196,1.0447 2.39326,8.1057 0.86781,2.36112 0.889,2.39495 3.265,5.21352 0.84534,1.00281 1.89588,2.44836 2.33452,3.21235 0.43865,0.76398 0.84273,1.38906 0.89796,1.38906 0.0552,0 0.4054,-0.13896 0.77814,-0.30879 z m 3.2898,7.68914 c -0.91074,-0.97495 -1.00511,-2.11577 -0.23845,-2.88244 0.70527,-0.70527 1.38304,-0.66704 2.33207,0.13152 0.93049,0.78295 1.23948,1.76971 0.80973,2.58589 -0.66729,1.26731 -1.81284,1.33242 -2.90335,0.16503 z"
         id="path892"
         sodipodi:nodetypes="cssssssssscssssssssssssssssssssssssssssssssscsssssssssscsscccsssssscsssssssssssssssssssssssssssssccsscsssscccscssssscsccssssssssssss" />
    </g>
  </g>
</svg>
